# xmcd
#
# Track frame offsets:
#	150
#	22983
#	46700
#	68425
#	88471
#	108141
#	129250
#	151392
#	176402
#	197049
#
# Disc length: 2927 seconds
#
# Revision: 1
# Processed by: cddbd v1.5.2PL0 Copyright (c) Steve Scherf et al.
# Submitted via: audiograbber 1.83.01
#
DISCID=720b6d0a
DTITLE=EmmyLou Harris - Red Dirt Girl
DYEAR=2000
DGENRE=
TTITLE0=The Pearl
TTITLE1=Michaelangelo
TTITLE2=I don't wanna talk about it
TTITLE3=Tragedy
TTITLE4=Red Dirt Girl
TTITLE5=My Baby Needs a Shepard
TTITLE6=Bang the Drum Slowly
TTITLE7=J'ai Fait Tout
TTITLE8=One Big Love
TTITLE9=Hour of Gold
EXTD=
EXTT0=
EXTT1=
EXTT2=
EXTT3=
EXTT4=
EXTT5=
EXTT6=
EXTT7=
EXTT8=
EXTT9=
PLAYORDER=
